<svg width="200" height="200" viewBox="0 0 200 200" fill="none" xmlns="http://www.w3.org/2000/svg">
<path d="M60.0179 200C54.5162 200 49.8082 198.043 45.8937 194.13C41.9725 190.21 40.0119 185.5 40.0119 180C40.0119 174.5 41.9725 169.79 45.8937 165.87C49.8082 161.957 54.5162 160 60.0179 160C65.5195 160 70.2276 161.957 74.1421 165.87C78.0632 169.79 80.0238 174.5 80.0238 180C80.0238 185.5 78.0632 190.21 74.1421 194.13C70.2276 198.043 65.5195 200 60.0179 200ZM160.048 200C154.546 200 149.838 198.043 145.923 194.13C142.002 190.21 140.042 185.5 140.042 180C140.042 174.5 142.002 169.79 145.923 165.87C149.838 161.957 154.546 160 160.048 160C165.549 160 170.261 161.957 174.182 165.87C178.096 169.79 180.054 174.5 180.054 180C180.054 185.5 178.096 190.21 174.182 194.13C170.261 198.043 165.549 200 160.048 200ZM51.5153 40L75.5225 90H145.543L173.052 40H51.5153ZM60.0179 150C52.5156 150 46.8473 146.707 43.0128 140.12C39.1783 133.54 39.0116 127 42.5127 120.5L56.0167 96L20.006 20H9.7529C6.91873 20 4.5847 19.04 2.75082 17.12C0.916939 15.2067 0 12.8333 0 10C0 7.16667 0.960286 4.79 2.88086 2.87C4.79476 0.956666 7.1688 0 10.003 0H26.2578C28.0917 0 29.8422 0.500001 31.5094 1.5C33.1765 2.5 34.4269 3.91667 35.2605 5.75L42.0125 20H189.556C194.058 20 197.142 21.6667 198.809 25C200.476 28.3333 200.393 31.8333 198.559 35.5L163.049 99.5C161.215 102.833 158.797 105.417 155.796 107.25C152.795 109.083 149.378 110 145.543 110H71.0211L60.0179 130H170.301C173.135 130 175.469 130.957 177.303 132.87C179.137 134.79 180.054 137.167 180.054 140C180.054 142.833 179.093 145.207 177.173 147.12C175.259 149.04 172.885 150 170.051 150H60.0179Z" fill="#f9f9f9"/>
</svg>